<svg width="64" height="64" viewBox="0 0 64 64" fill="none" xmlns="http://www.w3.org/2000/svg">
<g clip-path="url(#clip0_2407_13951)">
<g clip-path="url(#clip1_2407_13951)">
<path d="M18.8029 16.9599C21.5827 16.9599 23.7895 14.7686 23.7895 12.0083C23.7895 9.27633 21.5827 7.05664 18.8029 7.05664C16.0517 7.05664 13.8163 9.27633 13.8163 12.0083C13.8163 14.7686 16.0517 16.9599 18.8029 16.9599ZM44.3946 16.9599C47.1746 16.9599 49.3814 14.7686 49.3814 12.0083C49.3814 9.27633 47.1746 7.05664 44.3946 7.05664C41.6437 7.05664 39.4081 9.27633 39.4081 12.0083C39.4081 14.7686 41.6437 16.9599 44.3946 16.9599ZM18.7742 38.1893C19.7486 38.1893 20.1497 38.7584 20.6656 40.4375C21.3821 42.6572 23.818 52.1903 24.4772 54.9792C24.8212 56.4304 25.5662 56.9997 26.6553 56.9997C28.1455 56.9997 29.0053 55.6622 28.6039 54.2108C28.4608 53.6132 25.1365 39.8967 24.6778 37.0509C24.2192 34.1766 24.2192 27.8592 24.2479 26.0663C24.3054 24.5011 25.0218 23.7897 26.3686 23.5336C27.6584 23.3059 29.779 23.1921 31.6419 23.2206C33.5907 23.2206 35.5967 23.3059 36.915 23.5336C38.2619 23.7897 38.9784 24.5011 39.0069 26.0663C39.0356 27.8592 39.0069 34.1766 38.5198 37.0509C38.0326 39.8967 34.7368 53.6132 34.565 54.2108C34.1638 55.6622 35.0808 56.9997 36.5425 56.9997C37.6027 56.9997 38.3766 56.4304 38.7778 54.9792C39.5228 52.2188 41.8443 42.714 42.5892 40.4375C43.1625 38.8154 43.4778 38.1893 44.3946 38.1893C45.3691 38.1893 45.7703 38.7584 46.2862 40.4375C47.0027 42.6572 49.4099 52.1903 50.0978 54.9792C50.4416 56.4304 51.2155 56.9997 52.2757 56.9997C53.7374 56.9997 54.6257 55.6622 54.2245 54.2108C54.0812 53.6132 50.7856 39.8967 50.2984 37.0509C49.8398 34.1766 49.897 27.8592 49.897 25.8955C49.897 24.5865 50.4991 23.7043 51.588 23.4482C52.6769 23.1921 61.3892 22.3099 62.6215 21.9115C63.5671 21.57 64.255 20.8017 64.255 19.7487C64.255 18.4112 63.1946 17.6144 62.2775 17.6144C61.9335 17.6144 61.5898 17.6998 61.1886 17.7851C57.5775 18.4397 49.897 19.0088 44.3946 19.2649C39.8955 19.4072 34.8802 19.5211 31.7565 19.5211C28.5467 19.5211 23.3883 19.4072 18.7742 19.2649C13.3865 19.0658 5.64874 18.4966 1.98047 17.7851C1.66521 17.6998 1.29266 17.6144 0.948765 17.6144C-0.0256173 17.6144 -1 18.4112 -1 19.7487C-1 20.8017 -0.369518 21.6838 0.604865 21.9115C1.86584 22.1676 10.5493 23.249 11.6383 23.4482C12.6987 23.6474 13.3578 24.5865 13.4151 25.8955C13.4438 27.8592 13.3865 34.1766 12.8993 37.0509C12.4121 39.8967 9.11638 53.6132 8.94443 54.2108C8.54321 55.6622 9.46027 56.9997 10.9219 56.9997C12.0109 56.9997 12.756 56.4304 13.1572 54.9792C13.9023 52.2188 16.2236 42.714 16.9688 40.4375C17.5419 38.8154 17.8572 38.1893 18.7742 38.1893Z" fill="black" fill-opacity="0.85"/>
</g>
</g>
<defs>
<clipPath id="clip0_2407_13951">
<rect width="64" height="64" fill="white"/>
</clipPath>
<clipPath id="clip1_2407_13951">
<rect width="66" height="50" fill="white" transform="translate(-1 7)"/>
</clipPath>
</defs>
</svg>
